<svg version="1" xmlns="http://www.w3.org/2000/svg" width="341.333" height="341.333" viewBox="0 0 256.000000 256.000000"><path d="M28 128.5V209h62.8l.1-50.3v-54.2l.1-4.1 18.1.1c9.9 0 18.5-.2 18.9-.5.8-.5 13.1-46.6 13.4-50 .1-1.3-6.9-1.5-56.6-1.8L28 48v80.5zM149.6 48.8c-.4.7-22 82.4-24.1 91.2-.2.8-2 7.6-3.9 15-2 7.4-5.9 22-8.6 32.3-2.8 10.3-5 19.5-5 20.3 0 1.2 3.2 1.4 22.7 1.2l22.7-.3 6.9-24c3.8-13.2 6.9-24.6 7-25.3 0-.6.3-1.2.7-1.2.4 0 .6 10.9.6 24.2-.1 13.4 0 24.9.2 25.5.3 1 7.1 1.3 29.7 1.3 22.5 0 29.4-.3 29.7-1.3.2-.6.4-36.8.4-80.2l-.1-79-39.2-.2c-21.6-.1-39.5.2-39.7.5z"/></svg>